<svg width="767" height="209" viewBox="0 0 767 209" fill="none" xmlns="http://www.w3.org/2000/svg">
<path d="M721.113 147.732C721.113 156.537 721.113 165.505 721.113 174.473C716 174.962 710.887 174.799 705.774 174.636C705.774 146.916 705.774 119.359 705.774 91.6393C706.254 91.6393 706.733 91.4762 707.052 91.4762C711.047 91.4762 715.201 91.4762 719.196 91.4762C720.634 91.4762 720.634 91.4762 720.794 93.1068C720.794 94.0851 720.794 94.9004 720.794 95.8788C721.752 95.8788 722.232 95.3896 722.871 95.0635C725.427 93.4329 728.143 92.2915 731.019 91.6393C739.488 89.8456 747.477 90.987 754.507 96.2049C761.537 101.423 765.852 108.434 766.81 117.403C767.609 126.045 765.692 133.872 760.259 140.557C755.626 146.264 749.554 149.688 742.364 150.993C736.292 152.134 730.38 151.319 724.788 148.71C723.829 148.221 722.711 147.732 721.752 147.405C721.592 147.569 721.433 147.732 721.113 147.732ZM721.113 121.153C721.113 124.414 721.113 127.675 721.113 130.773C721.113 132.567 721.752 133.872 723.19 134.85C726.066 136.644 729.102 137.948 732.457 138.437C737.89 139.089 742.843 137.785 746.838 133.709C750.513 129.958 751.951 125.392 751.791 120.175C751.471 112.511 745.719 106.804 740.127 105.173C737.73 104.521 735.334 104.195 732.777 104.521C728.783 105.01 725.267 106.315 722.072 108.924C721.273 109.576 720.953 110.228 720.953 111.369C721.113 114.468 721.113 117.892 721.113 121.153Z" fill="url(#paint0_linear_101_5)"/>
<path d="M480.963 95.3896C480.963 94.9004 481.123 94.7374 481.123 94.4113C481.123 87.2367 481.123 80.2251 480.963 73.0505C480.963 71.4199 480.963 71.4199 482.401 71.0938C486.556 70.1154 490.71 69.3001 494.864 68.3218C495.344 68.1587 495.663 68.1587 496.143 68.1587C496.622 69.6263 496.462 148.547 495.983 150.83C491.189 150.993 486.396 150.993 481.603 150.83C481.443 149.362 481.283 148.058 481.283 146.427C480.324 146.916 479.685 147.242 479.046 147.732C476.17 149.525 473.134 150.83 469.779 151.319C461.95 152.623 454.6 150.993 448.049 146.427C440.859 141.372 436.864 134.198 435.746 125.392C434.627 116.587 436.864 108.76 442.456 101.749C446.451 96.6941 451.883 93.596 458.115 91.9654C465.944 90.0087 473.454 90.824 480.484 95.0635C480.484 95.2266 480.644 95.2265 480.963 95.3896ZM481.123 120.99C481.123 117.729 481.123 114.304 481.123 111.043C481.123 110.065 480.804 109.576 480.165 108.924C477.448 106.641 474.412 105.336 470.897 104.684C468.341 104.195 465.625 104.195 463.068 104.847C459.553 105.662 456.837 107.782 454.28 110.391C448.848 116.424 448.848 126.86 455.079 133.382C462.429 140.883 473.614 139.579 479.685 133.872C480.484 133.056 480.963 132.241 480.963 131.1C481.123 127.675 481.123 124.251 481.123 120.99Z" fill="url(#paint1_linear_101_5)"/>
<path d="M634.352 126.534C620.132 127.023 605.911 126.697 591.531 126.86C591.851 127.675 592.011 128.328 592.17 128.98C595.686 136.317 601.917 139.089 608.947 138.926C612.942 138.763 616.617 137.459 619.812 134.85C619.972 134.687 620.292 134.524 620.611 134.361C623.807 137.459 627.002 140.394 630.358 143.655C629.878 144.144 629.559 144.47 629.239 144.797C623.008 149.688 615.978 152.297 608.148 152.297C598.242 152.46 589.614 148.873 582.903 141.372C579.388 137.296 577.151 132.404 576.192 127.023C575.234 121.316 575.713 115.772 577.63 110.391C580.506 102.727 585.779 97.1833 592.969 93.759C601.118 89.8456 609.427 89.8456 617.575 93.759C624.925 97.1833 629.559 103.216 632.275 110.88C634.033 115.772 634.512 120.827 634.352 125.882C634.512 125.882 634.512 126.208 634.352 126.534ZM619.173 115.283C618.214 109.902 612.303 103.543 605.113 103.869C601.597 104.032 598.242 104.847 595.685 107.456C593.608 109.576 592.17 112.185 591.371 115.283C600.798 115.283 609.906 115.283 619.173 115.283Z" fill="url(#paint2_linear_101_5)"/>
<path d="M366.401 126.697C352.181 126.697 337.96 126.697 323.58 126.697C323.899 127.512 324.059 128.165 324.219 128.817C326.456 133.872 330.291 137.133 335.723 138.437C341.315 139.742 346.588 138.6 351.382 135.339C351.861 135.013 352.181 134.687 352.82 134.361C356.015 137.459 359.371 140.394 362.726 143.492C362.087 143.981 361.767 144.307 361.288 144.633C355.376 149.036 348.825 151.645 341.475 151.971C333.167 152.297 325.497 150.341 318.946 144.797C313.194 140.068 309.679 134.035 308.561 126.534C307.602 120.338 308.241 114.141 310.797 108.434C314.313 100.444 320.225 95.0635 328.373 92.2915C339.558 88.5411 349.624 90.987 358.092 99.303C362.566 103.706 364.963 109.413 366.081 115.609C366.721 118.87 366.721 122.131 366.721 125.392C366.561 125.882 366.561 126.045 366.401 126.697ZM351.382 115.283C350.103 109.413 344.511 103.38 336.362 103.706C329.332 104.032 323.74 111.532 323.899 115.283C333.007 115.283 342.114 115.283 351.382 115.283Z" fill="url(#paint3_linear_101_5)"/>
<path d="M411.139 118.055C411.139 115.283 411.459 112.674 410.66 110.228C409.701 107.293 407.464 105.662 404.748 104.684C402.032 103.706 399.156 103.706 396.28 103.869C391.646 104.195 387.492 105.988 383.178 107.782C382.539 107.945 382.059 108.271 381.261 108.597C379.343 104.847 377.586 101.097 375.668 97.1833C376.627 96.6941 377.426 96.368 378.384 95.8788C384.776 93.2698 391.167 91.6392 398.037 90.824C403.15 90.1717 408.263 90.824 413.057 92.6176C419.927 95.0635 424.241 99.9553 425.679 107.13C426.159 110.065 426.478 113.163 426.478 116.098C426.638 127.023 426.478 137.785 426.478 148.71C426.478 149.362 426.478 149.851 426.478 150.667C425.839 150.83 425.36 150.83 424.721 150.83C420.566 150.83 416.572 150.83 412.418 150.83C410.98 150.83 410.98 150.667 410.98 149.362C410.98 148.71 410.98 148.058 410.98 147.242C410.341 147.569 409.861 147.732 409.382 148.058C406.506 149.688 403.47 150.83 400.274 151.319C393.883 152.46 387.652 151.971 381.74 148.71C376.627 145.775 373.751 141.372 373.272 135.339C373.112 133.545 373.112 131.589 373.431 129.795C374.07 126.208 375.988 123.273 378.704 120.99C381.58 118.707 385.095 117.403 388.61 116.587C394.362 115.283 400.115 115.609 405.867 116.75C407.944 117.24 409.382 117.566 411.139 118.055ZM411.139 132.73C411.139 131.589 411.139 130.61 411.139 129.469C411.139 128.654 410.82 128.164 410.181 128.001C409.861 127.838 409.382 127.838 409.062 127.675C404.748 126.371 400.434 126.208 396.12 126.534C393.244 126.86 390.847 128.164 389.09 130.61C387.971 132.241 387.652 133.872 388.61 135.665C389.569 137.622 390.847 139.089 392.924 139.742C396.12 141.046 399.475 141.046 402.831 140.394C405.387 139.905 407.944 139.089 410.181 137.622C410.82 137.133 411.139 136.644 411.139 135.828C411.139 134.85 411.139 133.709 411.139 132.73Z" fill="url(#paint4_linear_101_5)"/>
<path d="M679.091 117.892C679.091 115.935 679.251 114.304 679.091 112.511C678.771 108.434 676.534 105.825 672.7 104.684C668.226 103.216 663.752 103.38 659.278 104.684C655.923 105.662 652.727 106.967 649.372 108.108C648.733 107.456 644.419 98.9769 643.779 97.0202C643.939 96.8571 644.259 96.6941 644.419 96.531C650.65 93.759 657.041 91.8023 663.752 90.8239C668.066 90.3348 672.38 90.3348 676.694 91.1501C680.05 91.9654 683.405 93.1068 686.121 95.2265C690.915 98.6508 693.471 103.379 693.791 109.413C693.95 111.696 693.95 113.978 693.95 116.098C693.95 125.719 693.95 135.176 693.95 144.797C693.95 146.753 693.791 148.547 693.791 150.504C692.353 150.83 680.05 150.993 678.931 150.504C678.931 149.525 678.771 148.384 678.771 147.242C678.132 147.569 677.813 147.732 677.333 147.895C671.262 151.319 664.711 152.46 657.84 151.482C651.928 150.667 647.135 148.058 643.62 143.003C642.501 141.372 641.862 139.579 641.383 137.622C640.744 134.687 640.903 131.915 641.543 128.98C642.661 124.74 645.218 121.642 648.892 119.522C652.567 117.403 656.562 116.424 660.716 115.935C666.308 115.446 671.901 116.098 677.493 117.403C678.132 117.729 678.452 117.892 679.091 117.892ZM679.091 132.893C679.091 131.752 679.091 130.61 679.091 129.469C679.091 128.328 679.091 128.164 677.972 127.838C673.978 126.534 669.824 125.882 665.669 126.045C663.113 126.208 660.716 126.697 658.639 128.164C655.603 130.284 655.124 135.013 657.68 137.622C659.118 139.089 660.876 140.068 662.793 140.394C664.711 140.557 666.788 140.72 668.705 140.557C672.061 140.394 675.256 139.253 678.132 137.622C678.931 137.133 679.41 136.48 679.251 135.502C679.091 134.687 679.091 133.708 679.091 132.893Z" fill="url(#paint5_linear_101_5)"/>
<path d="M241.772 71.4199C247.205 71.4199 252.637 71.4199 258.07 71.4199C258.07 92.9437 258.07 114.468 258.07 135.991C259.668 136.317 261.266 136.154 262.863 136.154C264.461 136.154 265.899 136.154 267.497 136.154C269.095 136.154 270.693 136.154 272.29 136.154C273.888 136.154 275.486 136.154 277.084 136.154C278.682 136.154 280.12 136.154 281.717 136.154C283.315 136.154 284.913 136.154 286.511 136.154C288.109 136.154 289.706 136.154 291.304 136.154C292.902 136.154 294.34 136.154 295.938 136.154C297.536 136.154 299.134 136.154 300.572 136.154C300.891 137.296 301.051 148.058 300.731 150.83C300.092 150.83 299.453 150.993 298.654 150.993C289.227 150.993 279.64 150.993 270.213 150.993C261.266 150.993 252.158 150.993 243.21 150.993C242.731 150.993 242.412 150.993 241.772 150.993C241.772 124.414 241.772 97.9986 241.772 71.4199Z" fill="url(#paint6_linear_101_5)"/>
<path d="M509.724 150.993C509.724 124.414 509.724 97.9986 509.724 71.583C514.997 71.583 520.11 71.583 525.542 71.583C525.542 72.0722 525.702 72.5613 525.702 73.0505C525.702 76.4747 525.702 80.062 525.702 83.4863C525.702 100.281 525.702 117.076 525.702 133.872C525.702 134.524 525.702 135.176 525.702 136.154C526.501 136.154 526.98 136.317 527.619 136.317C540.562 136.317 553.504 136.317 566.446 136.317C567.085 136.317 567.564 136.317 568.044 136.317C568.523 137.785 568.523 147.732 568.044 150.993C567.405 150.993 566.765 151.156 566.126 151.156C551.267 151.156 536.247 151.156 521.388 151.156C517.873 151.156 514.517 151.156 511.002 151.156C510.683 150.993 510.203 150.993 509.724 150.993Z" fill="url(#paint7_linear_101_5)"/>
<path d="M103.083 0C159.645 0 205.502 45.6566 206.141 103.216C206.781 161.429 160.444 207.574 105.48 208.716C46.3613 209.857 1.30331 162.081 0.0250717 107.293C-1.25317 46.961 46.5211 0 103.083 0ZM23.1932 160.287C24.1519 158.983 24.791 158.33 25.2703 157.515C25.9095 156.7 26.5486 155.885 27.3475 155.069C38.0527 144.307 51.1547 141.698 65.0556 145.449C75.7609 148.221 85.9868 152.786 96.3725 156.537C105.8 160.124 115.227 163.548 125.452 163.548C134.081 163.548 142.07 161.592 148.301 154.906C156.13 146.427 154.373 133.219 144.626 127.186C139.353 123.925 133.442 123.925 127.53 124.74C116.665 126.208 106.598 131.1 96.3725 135.176C89.6617 137.785 82.951 139.905 75.6011 139.742C65.5349 139.416 58.3448 132.078 58.3448 121.805C58.3448 114.957 60.422 108.924 63.4578 103.053C64.4165 101.423 64.4165 100.281 63.298 98.6508C57.5459 90.824 55.1492 82.0188 55.9481 72.3983C57.5459 50.2222 75.6011 34.0794 97.491 34.2424C101.006 34.2424 104.681 33.5902 107.877 32.1227C112.031 30.329 113.149 26.0895 113.789 21.8499C113.948 21.1977 114.428 19.8932 114.747 19.8932C119.541 19.7302 124.494 19.7302 129.447 19.7302C128.968 30.9812 120.979 34.2424 112.351 37.3405C135.838 48.5916 141.111 74.518 133.122 91.9654C128.648 101.749 121.618 108.924 111.871 112.837C97.6508 118.544 84.0694 116.587 71.287 107.456C69.5294 112.022 68.7305 116.261 69.2099 120.827C69.849 125.556 73.0446 129.306 77.6782 130.121C80.5543 130.61 83.7499 130.937 86.4661 130.447C93.3367 128.98 100.047 127.186 106.758 125.066C116.505 121.968 126.092 118.055 136.318 117.403C145.585 116.913 154.213 118.381 161.563 124.74C171.469 133.219 172.108 147.732 162.681 156.863C152.935 166.32 140.951 169.092 128.009 168.766C117.463 168.44 107.397 165.342 97.3312 162.244C87.265 159.146 77.3587 155.558 66.973 154.58C53.5514 153.113 42.207 158.983 35.656 170.723C34.6974 172.517 34.8571 173.821 36.2952 174.962C39.6506 177.734 42.6864 180.833 46.0418 183.279C57.2264 191.431 69.3697 197.139 82.7912 199.911C98.7692 203.335 114.587 202.846 130.246 198.28C147.342 193.225 162.042 184.094 174.185 170.723C189.844 153.602 198.472 133.219 200.07 110.065C201.188 92.4545 197.833 75.4964 189.844 59.6797C179.298 38.8081 163.48 23.4805 142.389 14.0231C120.18 4.07648 97.3312 2.93507 74.0033 10.1097C57.2264 15.3276 43.0059 24.785 31.1822 38.1558C18.5596 52.8312 10.5706 69.3001 7.53474 88.0519C4.17936 108.76 7.0554 128.654 16.0031 147.569C18.0802 151.808 20.6367 155.721 23.1932 160.287ZM102.924 46.961C102.764 49.8961 102.923 52.0159 102.444 54.1356C101.006 61.9625 96.3725 68.1587 91.8987 74.355C87.9042 80.0621 83.5901 85.6061 79.4358 91.1501C78.3173 92.6176 78.4771 93.759 79.7554 95.0635C83.9097 99.7922 88.703 103.706 94.6149 106.152C102.764 109.413 110.753 109.413 117.463 102.564C121.937 97.9986 123.695 91.9654 123.695 85.6061C123.695 72.8874 118.742 62.1255 109.954 52.9942C108.036 51.0375 105.64 49.2439 102.924 46.961ZM74.3228 86.9105C74.962 86.4214 75.4413 86.0952 75.6011 85.7691C80.3945 79.5729 85.3477 73.7027 89.6617 67.3434C92.5378 63.1039 94.7747 58.2121 96.3725 53.4834C97.9703 48.7547 95.254 43.5368 91.4193 42.8846C84.8683 41.7431 78.9565 43.3737 74.3228 48.4286C69.849 53.4834 68.411 59.6797 68.5708 66.3651C68.7305 73.5397 70.8077 80.2251 74.3228 86.9105Z" fill="url(#paint8_linear_101_5)"/>
<defs>
<linearGradient id="paint0_linear_101_5" x1="-48.0475" y1="147.793" x2="1231.74" y2="-59.6672" gradientUnits="userSpaceOnUse">
<stop stop-color="#97329D"/>
<stop offset="0.305829" stop-color="#E5308F"/>
<stop offset="0.614453" stop-color="#70359D"/>
<stop offset="0.923077" stop-color="#242424"/>
</linearGradient>
<linearGradient id="paint1_linear_101_5" x1="-48.0475" y1="147.793" x2="1231.74" y2="-59.6672" gradientUnits="userSpaceOnUse">
<stop stop-color="#97329D"/>
<stop offset="0.305829" stop-color="#E5308F"/>
<stop offset="0.614453" stop-color="#70359D"/>
<stop offset="0.923077" stop-color="#242424"/>
</linearGradient>
<linearGradient id="paint2_linear_101_5" x1="-48.0475" y1="147.793" x2="1231.74" y2="-59.6672" gradientUnits="userSpaceOnUse">
<stop stop-color="#97329D"/>
<stop offset="0.305829" stop-color="#E5308F"/>
<stop offset="0.614453" stop-color="#70359D"/>
<stop offset="0.923077" stop-color="#242424"/>
</linearGradient>
<linearGradient id="paint3_linear_101_5" x1="-48.0475" y1="147.793" x2="1231.74" y2="-59.6672" gradientUnits="userSpaceOnUse">
<stop stop-color="#97329D"/>
<stop offset="0.305829" stop-color="#E5308F"/>
<stop offset="0.614453" stop-color="#70359D"/>
<stop offset="0.923077" stop-color="#242424"/>
</linearGradient>
<linearGradient id="paint4_linear_101_5" x1="-48.0475" y1="147.793" x2="1231.74" y2="-59.6672" gradientUnits="userSpaceOnUse">
<stop stop-color="#97329D"/>
<stop offset="0.305829" stop-color="#E5308F"/>
<stop offset="0.614453" stop-color="#70359D"/>
<stop offset="0.923077" stop-color="#242424"/>
</linearGradient>
<linearGradient id="paint5_linear_101_5" x1="-48.0475" y1="147.793" x2="1231.74" y2="-59.6672" gradientUnits="userSpaceOnUse">
<stop stop-color="#97329D"/>
<stop offset="0.305829" stop-color="#E5308F"/>
<stop offset="0.614453" stop-color="#70359D"/>
<stop offset="0.923077" stop-color="#242424"/>
</linearGradient>
<linearGradient id="paint6_linear_101_5" x1="-48.0475" y1="147.793" x2="1231.74" y2="-59.6672" gradientUnits="userSpaceOnUse">
<stop stop-color="#97329D"/>
<stop offset="0.305829" stop-color="#E5308F"/>
<stop offset="0.614453" stop-color="#70359D"/>
<stop offset="0.923077" stop-color="#242424"/>
</linearGradient>
<linearGradient id="paint7_linear_101_5" x1="-48.0475" y1="147.793" x2="1231.74" y2="-59.6672" gradientUnits="userSpaceOnUse">
<stop stop-color="#97329D"/>
<stop offset="0.305829" stop-color="#E5308F"/>
<stop offset="0.614453" stop-color="#70359D"/>
<stop offset="0.923077" stop-color="#242424"/>
</linearGradient>
<linearGradient id="paint8_linear_101_5" x1="-48.0475" y1="147.793" x2="1231.74" y2="-59.6672" gradientUnits="userSpaceOnUse">
<stop stop-color="#97329D"/>
<stop offset="0.305829" stop-color="#E5308F"/>
<stop offset="0.614453" stop-color="#70359D"/>
<stop offset="0.923077" stop-color="#242424"/>
</linearGradient>
</defs>
</svg>
